<svg width="300" height="300" viewBox="0 0 300 300" xmlns="http://www.w3.org/2000/svg" xmlns:xlink="http://www.w3.org/1999/xlink" fill="none" overflow="hidden"><path d="M135.107 0C129.414 0 124.808 4.64431 124.872 10.3378 125.09 29.7467 126.446 57.3312 134.647 65.5323 141.044 71.9294 159.263 74.1556 176.177 74.936 189.611 75.5502 200.166 86.6428 200.166 100.09 200.166 113.536 189.611 124.629 176.177 125.243 159.263 126.024 141.044 128.25 134.647 134.647 128.25 141.044 126.024 159.263 125.243 176.177 124.629 189.611 113.536 200.166 100.09 200.166 86.6428 200.166 75.5502 189.611 74.936 176.177 74.1556 159.263 71.9294 141.044 65.5322 134.647 57.3439 126.459 29.7467 125.102 10.3378 124.872 4.64432 124.808 0 129.414 0 135.108L0 289.752C0 295.407 4.58035 299.987 10.2354 299.987L289.752 299.987C295.407 299.987 299.987 295.407 299.987 289.752L299.987 10.2354C299.987 4.58035 295.407 0 289.752 0L135.107 0Z" fill="#6A9791"/></svg>